<svg xmlns="http://www.w3.org/2000/svg" width="661" height="128" viewBox="0 0 661 128" fill="none">
                    <path fill-rule="evenodd" clip-rule="evenodd" d="M72.8949 61.714C80.6 55.7354 85.184 47.2959 85.184 37.4497C85.184 17.2291 67.6904 2.46097 43.5294 2.46097H0V125.539H46.6531C71.4373 125.539 89.5567 110.419 89.5567 89.4959C89.5567 77.7149 83.3092 67.8687 72.8949 61.7163V61.714ZM23.3266 21.4511H42.6949C54.1496 21.4511 61.8574 27.9558 61.8574 37.452C61.8574 46.9482 54.1523 53.4528 42.6949 53.4528H23.3266V21.4511ZM45.8187 106.549H23.3266V72.4384H45.8187C57.8992 72.4384 66.2301 79.2953 66.2301 89.4937C66.2301 99.692 57.8992 106.549 45.8187 106.549ZM173.489 91.7808C173.489 101.803 164.949 109.012 153.078 109.012C141.206 109.012 132.666 101.803 132.666 91.7808V2.46097H109.34V90.3742C109.34 112.175 127.668 128 153.078 128C178.488 128 196.816 112.175 196.816 90.3742V2.46097H173.489V91.7808ZM265.581 0C240.171 0 221.843 15.8247 221.843 37.6258V90.3719C221.843 112.173 240.171 127.998 265.581 127.998C290.991 127.998 309.319 112.173 309.319 90.3719V54.5049H265.581V73.4951H285.992V91.7808C285.992 101.803 277.453 109.012 265.581 109.012C253.709 109.012 245.17 101.803 245.17 91.7808V36.2192C245.17 26.197 253.709 18.9879 265.581 18.9879C277.453 18.9879 285.992 26.197 285.992 36.2192V39.3846H309.319V37.6258C309.319 15.8247 290.991 0 265.581 0ZM359.473 2.46097L325.941 125.537H349.059L355.723 100.923H395.295L401.959 125.537H425.077L391.548 2.46097H359.473ZM360.931 81.9324L375.509 27.9535L390.087 81.9324H360.931ZM429.036 21.4511H461.11L461.319 125.539H484.228L484.437 21.4511H516.509V2.46097H429.036V21.4511ZM528.629 21.4511H560.704L560.913 125.539H583.822L584.031 21.4511H616.103V2.46097H528.629V21.4511ZM636.966 2.46097H660.293V125.537H636.966V2.46097Z" fill="#D9BD2A"/>
                  </svg>