<svg xmlns="http://www.w3.org/2000/svg" width="171" height="128" viewBox="0 0 171 128" fill="none">
                    <g clip-path="url(#clip0_65_12)">
                      <path fill-rule="evenodd" clip-rule="evenodd" d="M0 0.00243716H131.889C132.038 0.0341202 132.184 0.0877378 132.335 0.0950493C135.423 0.229093 138.455 0.733585 141.404 1.64508C151.752 4.84264 159.19 11.3425 163.516 21.3032C165.278 25.3587 166.156 29.631 166.409 34.0447C166.595 37.291 166.412 40.508 165.761 43.6885C164.355 50.5638 161.133 56.4471 156.044 61.297C155.939 61.3969 155.852 61.5139 155.761 61.6163C155.808 61.6723 155.817 61.6894 155.832 61.7016C155.988 61.8186 156.144 61.9356 156.3 62.0501C162.086 66.3151 166.153 71.8402 168.442 78.6545C169.388 81.4694 170.014 84.3526 170.143 87.3308C170.15 87.4819 170.206 87.6281 170.241 87.7768V93.3871C170.204 93.5723 170.153 93.7576 170.138 93.9452C170.111 94.2742 170.128 94.6081 170.094 94.9372C169.821 97.4572 169.358 99.9431 168.603 102.368C165.781 111.437 160.321 118.414 152.035 123.111C146.105 126.472 139.659 127.978 132.886 127.983C88.8467 128.009 44.8096 127.997 0.770143 127.997H0.0950493V94.3693H21.2886V100.543C21.2886 102.6 21.2788 104.657 21.2959 106.699C22.2415 106.818 72.5494 106.774 72.9759 106.662V73.5486H51.2681V83.6531C50.5467 83.7896 30.4986 83.7555 30.0892 83.6287V42.0971H51.273V52.1942C52.0017 52.3283 72.5713 52.299 72.9735 52.1772V21.2667H21.2788V32.1535H0.0560547V0.811574C0.0560547 0.54105 0.0194973 0.270525 0.00243716 0L0 0.00243716ZM97.5571 106.757H131.209C133.008 106.757 134.79 106.597 136.53 106.119C141.984 104.625 145.747 101.276 147.492 95.856C148.733 92.0052 148.698 88.1009 147.446 84.2502C146.1 80.1143 143.437 77.0898 139.503 75.2181C137.056 74.0531 134.453 73.5389 131.75 73.5194C129.472 73.5023 127.191 73.517 124.912 73.517H97.5595V106.76L97.5571 106.757ZM97.5742 21.2277V52.2747H128.763C130.508 52.2747 132.221 52.048 133.893 51.5459C138.701 50.1056 142.03 47.0738 143.654 42.2945C144.684 39.2578 144.811 36.1358 144.134 33.0138C142.993 27.7544 139.895 24.1401 134.821 22.2732C132.657 21.4763 130.398 21.2277 128.104 21.2277C118.146 21.2325 108.19 21.2277 98.2322 21.2277H97.5717H97.5742Z" fill="#D9BD2A"/>
                    </g>
                    <defs>
                      <clipPath id="clip0_65_12">
                        <rect width="170.241" height="128" fill="white"/>
                      </clipPath>
                    </defs>
                  </svg>